<svg xmlns="http://www.w3.org/2000/svg" xmlns:xlink="http://www.w3.org/1999/xlink" width="500" zoomAndPan="magnify" viewBox="0 0 375 262.499992" height="350" preserveAspectRatio="xMidYMid meet" version="1.0"><defs><g/><clipPath id="35407f8ac0"><path d="M 88 162 L 258.613281 162 L 258.613281 222 L 88 222 Z M 88 162 " clip-rule="nonzero"/></clipPath></defs><path fill="#ffffff" d="M 178.5 237.335938 C 181.554688 236.425781 184.527344 235.382812 187.421875 234.21875 C 137.347656 244.128906 87.042969 214.453125 72.222656 164.542969 C 57.398438 114.632812 83.355469 62.3125 130.722656 43.28125 C 127.660156 43.886719 124.597656 44.636719 121.546875 45.542969 C 68.585938 61.269531 38.402344 116.953125 54.128906 169.914062 C 69.855469 222.878906 125.539062 253.0625 178.5 237.335938 " fill-opacity="1" fill-rule="nonzero"/><path fill="#5ce1e6" d="M 54.554688 211.945312 C 57.210938 214.027344 59.9375 215.957031 62.71875 217.742188 C 23.441406 180.539062 18.234375 118.859375 52.285156 75.433594 C 86.332031 32.011719 147.476562 22.355469 192.972656 51.625 C 190.570312 49.351562 188.054688 47.160156 185.398438 45.078125 C 139.320312 8.949219 72.675781 17.015625 36.542969 63.089844 C 0.414062 109.171875 8.476562 175.8125 54.554688 211.945312 " fill-opacity="1" fill-rule="nonzero"/><g clip-path="url(#35407f8ac0)"><path fill="#5ce1e6" d="M 153.148438 207.101562 C 125.824219 199.753906 103.347656 183.371094 88.0625 162.039062 C 100.113281 188.644531 123.535156 209.847656 153.941406 218.019531 C 193.664062 228.699219 234.21875 214.164062 258.621094 184.214844 C 230.242188 207.601562 191.363281 217.371094 153.148438 207.101562 " fill-opacity="1" fill-rule="nonzero"/></g><g fill="#ffffff" fill-opacity="1"><g transform="translate(81.51629, 152.435405)"><g><path d="M 0.625 0 L 8.1875 -43.515625 L 21.75 -43.484375 C 26.789062 -43.460938 30.578125 -42.4375 33.109375 -40.40625 C 35.640625 -38.375 36.785156 -35.515625 36.546875 -31.828125 C 36.265625 -27.421875 33.722656 -24.203125 28.921875 -22.171875 C 30.660156 -21.578125 32.003906 -20.457031 32.953125 -18.8125 C 33.910156 -17.164062 34.320312 -15.226562 34.1875 -13 C 33.90625 -8.894531 32.296875 -5.703125 29.359375 -3.421875 C 26.421875 -1.140625 22.410156 0 17.328125 0 Z M 12.703125 -18.953125 L 10.640625 -7.203125 L 17.546875 -7.171875 C 19.691406 -7.171875 21.488281 -7.703125 22.9375 -8.765625 C 24.394531 -9.835938 25.265625 -11.28125 25.546875 -13.09375 C 25.828125 -14.882812 25.582031 -16.28125 24.8125 -17.28125 C 24.050781 -18.289062 22.765625 -18.835938 20.953125 -18.921875 Z M 13.78125 -25.28125 L 19.71875 -25.21875 C 21.9375 -25.257812 23.742188 -25.773438 25.140625 -26.765625 C 26.546875 -27.765625 27.390625 -29.15625 27.671875 -30.9375 C 28.171875 -34.4375 26.328125 -36.195312 22.140625 -36.21875 L 15.6875 -36.25 Z M 13.78125 -25.28125 "/></g></g></g><g fill="#ffffff" fill-opacity="1"><g transform="translate(116.82372, 152.435405)"><g><path d="M 9 0 L 0.515625 0 L 8.484375 -45.90625 L 16.9375 -45.90625 Z M 9 0 "/></g></g></g><g fill="#ffffff" fill-opacity="1"><g transform="translate(129.991538, 152.435405)"><g><path d="M 20.109375 -3.34375 C 17.722656 -0.65625 14.753906 0.65625 11.203125 0.59375 C 8.097656 0.550781 5.75 -0.5625 4.15625 -2.75 C 2.5625 -4.9375 1.941406 -7.828125 2.296875 -11.421875 L 5.796875 -32.328125 L 14.21875 -32.328125 L 10.671875 -11.328125 C 10.585938 -10.671875 10.578125 -10.050781 10.640625 -9.46875 C 10.835938 -7.476562 11.941406 -6.453125 13.953125 -6.390625 C 16.566406 -6.316406 18.726562 -7.320312 20.4375 -9.40625 L 24.46875 -32.328125 L 32.96875 -32.328125 L 27.34375 0 L 19.484375 0 Z M 20.109375 -3.34375 "/></g></g></g><g fill="#ffffff" fill-opacity="1"><g transform="translate(160.637993, 152.435405)"><g><path d="M 15.453125 0.59375 C 12.617188 0.570312 10.109375 -0.117188 7.921875 -1.484375 C 5.742188 -2.847656 4.117188 -4.71875 3.046875 -7.09375 C 1.972656 -9.476562 1.554688 -12.101562 1.796875 -14.96875 L 1.875 -16.171875 C 2.175781 -19.316406 3.09375 -22.203125 4.625 -24.828125 C 6.164062 -27.460938 8.140625 -29.488281 10.546875 -30.90625 C 12.960938 -32.332031 15.632812 -33.007812 18.5625 -32.9375 C 22.71875 -32.851562 25.867188 -31.320312 28.015625 -28.34375 C 30.160156 -25.363281 30.972656 -21.59375 30.453125 -17.03125 L 29.96875 -13.359375 L 10.15625 -13.359375 C 10.082031 -11.265625 10.59375 -9.585938 11.6875 -8.328125 C 12.78125 -7.078125 14.273438 -6.429688 16.171875 -6.390625 C 19.234375 -6.316406 21.921875 -7.503906 24.234375 -9.953125 L 28.09375 -5.171875 C 26.875 -3.335938 25.117188 -1.90625 22.828125 -0.875 C 20.535156 0.144531 18.078125 0.632812 15.453125 0.59375 Z M 18.140625 -25.96875 C 16.585938 -26.007812 15.207031 -25.519531 14 -24.5 C 12.789062 -23.488281 11.710938 -21.726562 10.765625 -19.21875 L 22.359375 -19.21875 L 22.53125 -20 C 22.65625 -20.789062 22.664062 -21.546875 22.5625 -22.265625 C 22.363281 -23.421875 21.875 -24.320312 21.09375 -24.96875 C 20.320312 -25.613281 19.335938 -25.945312 18.140625 -25.96875 Z M 18.140625 -25.96875 "/></g></g></g><g fill="#0cedf5" fill-opacity="1"><g transform="translate(188.036232, 151.246797)"><g><path d="M 35.71875 -12.640625 L 46.203125 -43.515625 L 55.140625 -43.515625 L 38.96875 0 L 30.15625 0 L 27.859375 -28.984375 L 16.46875 0 L 7.65625 0 L 5.078125 -43.515625 L 13.625 -43.515625 L 14.5 -12.796875 L 26.203125 -43.515625 L 33.65625 -43.515625 Z M 35.71875 -12.640625 "/></g></g></g><g fill="#0cedf5" fill-opacity="1"><g transform="translate(237.357199, 151.246797)"><g><path d="M 18.796875 0 C 18.535156 -0.8125 18.425781 -1.785156 18.46875 -2.921875 C 16.039062 -0.492188 13.289062 0.675781 10.21875 0.59375 C 7.394531 0.550781 5.050781 -0.367188 3.1875 -2.171875 C 1.320312 -3.972656 0.445312 -6.195312 0.5625 -8.84375 C 0.707031 -12.375 2.1875 -15.078125 5 -16.953125 C 7.820312 -18.835938 11.601562 -19.78125 16.34375 -19.78125 L 20.296875 -19.71875 L 20.703125 -21.671875 C 20.828125 -22.328125 20.859375 -22.953125 20.796875 -23.546875 C 20.703125 -24.484375 20.347656 -25.210938 19.734375 -25.734375 C 19.128906 -26.265625 18.328125 -26.539062 17.328125 -26.5625 C 16.015625 -26.601562 14.898438 -26.28125 13.984375 -25.59375 C 13.066406 -24.90625 12.476562 -23.914062 12.21875 -22.625 L 3.765625 -22.59375 C 3.898438 -25.675781 5.316406 -28.179688 8.015625 -30.109375 C 10.722656 -32.035156 14.054688 -32.976562 18.015625 -32.9375 C 21.679688 -32.851562 24.550781 -31.757812 26.625 -29.65625 C 28.695312 -27.550781 29.566406 -24.847656 29.234375 -21.546875 L 26.75 -6.0625 L 26.59375 -4.15625 C 26.550781 -2.738281 26.722656 -1.539062 27.109375 -0.5625 L 27.078125 0 Z M 12.3125 -5.953125 C 14.738281 -5.867188 16.859375 -6.921875 18.671875 -9.109375 L 19.71875 -14.703125 L 16.796875 -14.734375 C 13.691406 -14.648438 11.453125 -13.703125 10.078125 -11.890625 C 9.578125 -11.234375 9.265625 -10.425781 9.140625 -9.46875 C 8.984375 -8.394531 9.207031 -7.546875 9.8125 -6.921875 C 10.425781 -6.296875 11.257812 -5.972656 12.3125 -5.953125 Z M 12.3125 -5.953125 "/></g></g></g><g fill="#0cedf5" fill-opacity="1"><g transform="translate(266.599852, 151.246797)"><g><path d="M 13.6875 -10.671875 L 22.890625 -32.328125 L 31.96875 -32.328125 L 16.34375 0 L 8.28125 0 L 2.75 -32.328125 L 11.296875 -32.328125 Z M 13.6875 -10.671875 "/></g></g></g><g fill="#0cedf5" fill-opacity="1"><g transform="translate(294.019911, 151.246797)"><g><path d="M 15.453125 0.59375 C 12.617188 0.570312 10.109375 -0.117188 7.921875 -1.484375 C 5.742188 -2.847656 4.117188 -4.71875 3.046875 -7.09375 C 1.972656 -9.476562 1.554688 -12.101562 1.796875 -14.96875 L 1.875 -16.171875 C 2.175781 -19.316406 3.09375 -22.203125 4.625 -24.828125 C 6.164062 -27.460938 8.140625 -29.488281 10.546875 -30.90625 C 12.960938 -32.332031 15.632812 -33.007812 18.5625 -32.9375 C 22.71875 -32.851562 25.867188 -31.320312 28.015625 -28.34375 C 30.160156 -25.363281 30.972656 -21.59375 30.453125 -17.03125 L 29.96875 -13.359375 L 10.15625 -13.359375 C 10.082031 -11.265625 10.59375 -9.585938 11.6875 -8.328125 C 12.78125 -7.078125 14.273438 -6.429688 16.171875 -6.390625 C 19.234375 -6.316406 21.921875 -7.503906 24.234375 -9.953125 L 28.09375 -5.171875 C 26.875 -3.335938 25.117188 -1.90625 22.828125 -0.875 C 20.535156 0.144531 18.078125 0.632812 15.453125 0.59375 Z M 18.140625 -25.96875 C 16.585938 -26.007812 15.207031 -25.519531 14 -24.5 C 12.789062 -23.488281 11.710938 -21.726562 10.765625 -19.21875 L 22.359375 -19.21875 L 22.53125 -20 C 22.65625 -20.789062 22.664062 -21.546875 22.5625 -22.265625 C 22.363281 -23.421875 21.875 -24.320312 21.09375 -24.96875 C 20.320312 -25.613281 19.335938 -25.945312 18.140625 -25.96875 Z M 18.140625 -25.96875 "/></g></g></g><g fill="#0cedf5" fill-opacity="1"><g transform="translate(323.531467, 151.246797)"><g><path d="M 18.828125 -9.109375 C 19.148438 -10.703125 18.046875 -11.859375 15.515625 -12.578125 L 12.796875 -13.265625 C 6.359375 -15.035156 3.226562 -18.164062 3.40625 -22.65625 C 3.507812 -25.695312 4.859375 -28.179688 7.453125 -30.109375 C 10.054688 -32.035156 13.191406 -32.976562 16.859375 -32.9375 C 20.503906 -32.894531 23.453125 -31.925781 25.703125 -30.03125 C 27.953125 -28.132812 29.097656 -25.613281 29.140625 -22.46875 L 20.765625 -22.5 C 20.804688 -25.269531 19.429688 -26.675781 16.640625 -26.71875 C 15.328125 -26.71875 14.1875 -26.390625 13.21875 -25.734375 C 12.257812 -25.078125 11.671875 -24.191406 11.453125 -23.078125 C 11.148438 -21.484375 12.351562 -20.351562 15.0625 -19.6875 L 16.25 -19.421875 C 19 -18.765625 21.101562 -18.015625 22.5625 -17.171875 C 24.019531 -16.328125 25.140625 -15.273438 25.921875 -14.015625 C 26.710938 -12.765625 27.078125 -11.257812 27.015625 -9.5 C 26.953125 -7.445312 26.285156 -5.65625 25.015625 -4.125 C 23.753906 -2.59375 22.023438 -1.40625 19.828125 -0.5625 C 17.628906 0.269531 15.3125 0.65625 12.875 0.59375 C 9.289062 0.550781 6.300781 -0.476562 3.90625 -2.5 C 1.519531 -4.519531 0.304688 -7.132812 0.265625 -10.34375 L 8.21875 -10.28125 C 8.300781 -7.1875 9.953125 -5.625 13.171875 -5.59375 C 14.734375 -5.59375 16.015625 -5.910156 17.015625 -6.546875 C 18.023438 -7.179688 18.628906 -8.035156 18.828125 -9.109375 Z M 18.828125 -9.109375 "/></g></g></g><g fill="#0cedf5" fill-opacity="1"><g transform="translate(121.144001, 174.031496)"><g><path d="M 6.59375 0.25 C 5.445312 0.25 4.46875 -0.00390625 3.65625 -0.515625 C 2.851562 -1.023438 2.234375 -1.726562 1.796875 -2.625 C 1.367188 -3.519531 1.15625 -4.53125 1.15625 -5.65625 C 1.15625 -6.882812 1.34375 -8.019531 1.71875 -9.0625 C 2.101562 -10.113281 2.644531 -11.035156 3.34375 -11.828125 C 4.039062 -12.628906 4.878906 -13.25 5.859375 -13.6875 C 6.847656 -14.132812 7.941406 -14.359375 9.140625 -14.359375 C 10.296875 -14.359375 11.28125 -14.097656 12.09375 -13.578125 C 12.90625 -13.054688 13.523438 -12.351562 13.953125 -11.46875 C 14.378906 -10.582031 14.59375 -9.582031 14.59375 -8.46875 C 14.59375 -7.257812 14.398438 -6.125 14.015625 -5.0625 C 13.628906 -4.007812 13.078125 -3.082031 12.359375 -2.28125 C 11.648438 -1.488281 10.804688 -0.867188 9.828125 -0.421875 C 8.847656 0.0234375 7.769531 0.25 6.59375 0.25 Z M 6.859375 -1.421875 C 7.753906 -1.421875 8.554688 -1.613281 9.265625 -2 C 9.972656 -2.382812 10.570312 -2.90625 11.0625 -3.5625 C 11.5625 -4.226562 11.941406 -4.976562 12.203125 -5.8125 C 12.460938 -6.65625 12.59375 -7.523438 12.59375 -8.421875 C 12.59375 -9.335938 12.425781 -10.113281 12.09375 -10.75 C 11.757812 -11.382812 11.3125 -11.863281 10.75 -12.1875 C 10.1875 -12.507812 9.5625 -12.671875 8.875 -12.671875 C 7.988281 -12.671875 7.191406 -12.476562 6.484375 -12.09375 C 5.773438 -11.71875 5.175781 -11.207031 4.6875 -10.5625 C 4.195312 -9.914062 3.820312 -9.171875 3.5625 -8.328125 C 3.300781 -7.492188 3.171875 -6.613281 3.171875 -5.6875 C 3.171875 -4.769531 3.332031 -3.988281 3.65625 -3.34375 C 3.988281 -2.707031 4.429688 -2.226562 4.984375 -1.90625 C 5.546875 -1.582031 6.171875 -1.421875 6.859375 -1.421875 Z M 6.859375 -1.421875 "/></g></g></g><g fill="#0cedf5" fill-opacity="1"><g transform="translate(136.526354, 174.031496)"><g><path d="M 0.171875 0 L 2.390625 -10.484375 L 3.734375 -10.484375 L 3.859375 -9.015625 C 4.210938 -9.472656 4.675781 -9.859375 5.25 -10.171875 C 5.820312 -10.484375 6.578125 -10.640625 7.515625 -10.640625 C 8.398438 -10.640625 9.09375 -10.398438 9.59375 -9.921875 C 10.09375 -9.441406 10.34375 -8.703125 10.34375 -7.703125 C 10.34375 -7.234375 10.28125 -6.6875 10.15625 -6.0625 L 8.84375 0 L 7.0625 0 L 8.296875 -5.890625 C 8.429688 -6.515625 8.5 -7.023438 8.5 -7.421875 C 8.5 -8.035156 8.351562 -8.460938 8.0625 -8.703125 C 7.78125 -8.953125 7.335938 -9.078125 6.734375 -9.078125 C 6.234375 -9.078125 5.742188 -8.960938 5.265625 -8.734375 C 4.785156 -8.515625 4.359375 -8.132812 3.984375 -7.59375 C 3.609375 -7.0625 3.320312 -6.335938 3.125 -5.421875 L 1.984375 0 Z M 0.171875 0 "/></g></g></g><g fill="#0cedf5" fill-opacity="1"><g transform="translate(148.147635, 174.031496)"><g><path d="M 5.03125 0.25 C 3.644531 0.25 2.554688 -0.148438 1.765625 -0.953125 C 0.972656 -1.753906 0.578125 -2.835938 0.578125 -4.203125 C 0.578125 -5.429688 0.816406 -6.53125 1.296875 -7.5 C 1.785156 -8.46875 2.472656 -9.234375 3.359375 -9.796875 C 4.253906 -10.359375 5.3125 -10.640625 6.53125 -10.640625 C 7.46875 -10.640625 8.242188 -10.445312 8.859375 -10.0625 C 9.484375 -9.6875 9.953125 -9.171875 10.265625 -8.515625 C 10.585938 -7.867188 10.75 -7.144531 10.75 -6.34375 C 10.75 -5.832031 10.6875 -5.300781 10.5625 -4.75 L 2.453125 -4.75 C 2.429688 -4.65625 2.421875 -4.554688 2.421875 -4.453125 C 2.421875 -4.359375 2.421875 -4.257812 2.421875 -4.15625 C 2.421875 -3.4375 2.554688 -2.867188 2.828125 -2.453125 C 3.109375 -2.046875 3.46875 -1.753906 3.90625 -1.578125 C 4.34375 -1.398438 4.785156 -1.3125 5.234375 -1.3125 C 5.828125 -1.3125 6.332031 -1.40625 6.75 -1.59375 C 7.175781 -1.78125 7.539062 -2.03125 7.84375 -2.34375 L 9.484375 -1.84375 C 9.003906 -1.21875 8.394531 -0.710938 7.65625 -0.328125 C 6.914062 0.0546875 6.039062 0.25 5.03125 0.25 Z M 2.703125 -6.1875 L 8.890625 -6.1875 C 8.910156 -6.257812 8.921875 -6.320312 8.921875 -6.375 C 8.921875 -6.4375 8.921875 -6.492188 8.921875 -6.546875 C 8.921875 -6.972656 8.832031 -7.378906 8.65625 -7.765625 C 8.476562 -8.160156 8.191406 -8.484375 7.796875 -8.734375 C 7.410156 -8.992188 6.90625 -9.125 6.28125 -9.125 C 5.757812 -9.125 5.25 -9.007812 4.75 -8.78125 C 4.257812 -8.5625 3.832031 -8.234375 3.46875 -7.796875 C 3.101562 -7.359375 2.847656 -6.820312 2.703125 -6.1875 Z M 2.703125 -6.1875 "/></g></g></g><g fill="#0cedf5" fill-opacity="1"><g transform="translate(159.599882, 174.031496)"><g/></g></g><g fill="#0cedf5" fill-opacity="1"><g transform="translate(165.516173, 174.031496)"><g><path d="M 6.015625 0.25 C 5.273438 0.25 4.550781 0.128906 3.84375 -0.109375 C 3.132812 -0.347656 2.507812 -0.71875 1.96875 -1.21875 C 1.425781 -1.71875 1.023438 -2.347656 0.765625 -3.109375 L 2.6875 -3.640625 C 2.945312 -2.878906 3.410156 -2.316406 4.078125 -1.953125 C 4.753906 -1.597656 5.457031 -1.421875 6.1875 -1.421875 C 6.738281 -1.421875 7.257812 -1.515625 7.75 -1.703125 C 8.25 -1.890625 8.648438 -2.171875 8.953125 -2.546875 C 9.265625 -2.921875 9.421875 -3.367188 9.421875 -3.890625 C 9.421875 -4.390625 9.28125 -4.789062 9 -5.09375 C 8.726562 -5.40625 8.367188 -5.65625 7.921875 -5.84375 C 7.472656 -6.039062 6.976562 -6.21875 6.4375 -6.375 C 5.90625 -6.53125 5.367188 -6.695312 4.828125 -6.875 C 4.285156 -7.0625 3.785156 -7.296875 3.328125 -7.578125 C 2.878906 -7.859375 2.519531 -8.226562 2.25 -8.6875 C 1.976562 -9.144531 1.84375 -9.734375 1.84375 -10.453125 C 1.84375 -11.328125 2.082031 -12.050781 2.5625 -12.625 C 3.050781 -13.207031 3.675781 -13.640625 4.4375 -13.921875 C 5.195312 -14.210938 6 -14.359375 6.84375 -14.359375 C 7.53125 -14.359375 8.203125 -14.257812 8.859375 -14.0625 C 9.523438 -13.875 10.125 -13.582031 10.65625 -13.1875 C 11.1875 -12.800781 11.582031 -12.3125 11.84375 -11.71875 L 9.90625 -11.171875 C 9.65625 -11.671875 9.226562 -12.050781 8.625 -12.3125 C 8.03125 -12.570312 7.410156 -12.703125 6.765625 -12.703125 C 6.253906 -12.703125 5.773438 -12.625 5.328125 -12.46875 C 4.890625 -12.3125 4.53125 -12.070312 4.25 -11.75 C 3.976562 -11.425781 3.84375 -11.015625 3.84375 -10.515625 C 3.84375 -10.054688 3.976562 -9.675781 4.25 -9.375 C 4.53125 -9.082031 4.898438 -8.835938 5.359375 -8.640625 C 5.816406 -8.453125 6.316406 -8.28125 6.859375 -8.125 C 7.398438 -7.976562 7.941406 -7.804688 8.484375 -7.609375 C 9.023438 -7.421875 9.523438 -7.1875 9.984375 -6.90625 C 10.441406 -6.625 10.804688 -6.265625 11.078125 -5.828125 C 11.347656 -5.390625 11.484375 -4.832031 11.484375 -4.15625 C 11.484375 -3.457031 11.328125 -2.832031 11.015625 -2.28125 C 10.710938 -1.726562 10.300781 -1.265625 9.78125 -0.890625 C 9.257812 -0.523438 8.675781 -0.242188 8.03125 -0.046875 C 7.382812 0.148438 6.710938 0.25 6.015625 0.25 Z M 6.015625 0.25 "/></g></g></g><g fill="#0cedf5" fill-opacity="1"><g transform="translate(178.384098, 174.031496)"><g><path d="M 3.375 0 C 2.5625 0 2.003906 -0.113281 1.703125 -0.34375 C 1.398438 -0.582031 1.25 -0.941406 1.25 -1.421875 C 1.25 -1.722656 1.316406 -2.203125 1.453125 -2.859375 L 2.78125 -9.046875 L 1.03125 -9.046875 L 1.328125 -10.484375 L 3.078125 -10.484375 L 3.65625 -13.09375 L 5.46875 -13.09375 L 4.90625 -10.484375 L 6.90625 -10.484375 L 6.609375 -9.046875 L 4.609375 -9.046875 L 3.375 -3.359375 C 3.320312 -3.109375 3.273438 -2.878906 3.234375 -2.671875 C 3.203125 -2.460938 3.1875 -2.304688 3.1875 -2.203125 C 3.1875 -1.972656 3.25 -1.8125 3.375 -1.71875 C 3.5 -1.625 3.738281 -1.578125 4.09375 -1.578125 L 5.03125 -1.578125 L 4.6875 0 Z M 3.375 0 "/></g></g></g><g fill="#0cedf5" fill-opacity="1"><g transform="translate(185.230093, 174.031496)"><g><path d="M 4.859375 0.25 C 3.453125 0.25 2.382812 -0.160156 1.65625 -0.984375 C 0.9375 -1.816406 0.578125 -2.890625 0.578125 -4.203125 C 0.578125 -5.429688 0.820312 -6.53125 1.3125 -7.5 C 1.800781 -8.46875 2.484375 -9.234375 3.359375 -9.796875 C 4.242188 -10.359375 5.257812 -10.640625 6.40625 -10.640625 C 7.125 -10.640625 7.800781 -10.484375 8.4375 -10.171875 C 9.082031 -9.867188 9.601562 -9.394531 10 -8.75 C 10.40625 -8.113281 10.609375 -7.296875 10.609375 -6.296875 C 10.609375 -5.410156 10.46875 -4.570312 10.1875 -3.78125 C 9.90625 -2.988281 9.507812 -2.289062 9 -1.6875 C 8.488281 -1.082031 7.878906 -0.609375 7.171875 -0.265625 C 6.472656 0.078125 5.703125 0.25 4.859375 0.25 Z M 5 -1.3125 C 5.820312 -1.3125 6.503906 -1.554688 7.046875 -2.046875 C 7.597656 -2.535156 8.015625 -3.164062 8.296875 -3.9375 C 8.578125 -4.707031 8.71875 -5.515625 8.71875 -6.359375 C 8.71875 -7.390625 8.46875 -8.097656 7.96875 -8.484375 C 7.46875 -8.878906 6.851562 -9.078125 6.125 -9.078125 C 5.289062 -9.078125 4.597656 -8.835938 4.046875 -8.359375 C 3.503906 -7.878906 3.097656 -7.265625 2.828125 -6.515625 C 2.554688 -5.773438 2.421875 -5 2.421875 -4.1875 C 2.421875 -3.320312 2.640625 -2.625 3.078125 -2.09375 C 3.515625 -1.570312 4.15625 -1.3125 5 -1.3125 Z M 5 -1.3125 "/></g></g></g><g fill="#0cedf5" fill-opacity="1"><g transform="translate(196.787978, 174.031496)"><g><path d="M -0.546875 3.421875 L 2.40625 -10.484375 L 3.734375 -10.484375 L 3.84375 -9.078125 C 4.125 -9.492188 4.519531 -9.859375 5.03125 -10.171875 C 5.550781 -10.484375 6.207031 -10.640625 7 -10.640625 C 7.851562 -10.640625 8.554688 -10.4375 9.109375 -10.03125 C 9.671875 -9.632812 10.085938 -9.097656 10.359375 -8.421875 C 10.640625 -7.753906 10.78125 -7.007812 10.78125 -6.1875 C 10.78125 -5.4375 10.671875 -4.6875 10.453125 -3.9375 C 10.242188 -3.1875 9.929688 -2.492188 9.515625 -1.859375 C 9.097656 -1.222656 8.566406 -0.710938 7.921875 -0.328125 C 7.285156 0.0546875 6.539062 0.25 5.6875 0.25 C 4.851562 0.25 4.15625 0.0546875 3.59375 -0.328125 C 3.039062 -0.722656 2.644531 -1.269531 2.40625 -1.96875 L 1.265625 3.421875 Z M 5.5 -1.25 C 6.039062 -1.25 6.519531 -1.394531 6.9375 -1.6875 C 7.351562 -1.988281 7.703125 -2.378906 7.984375 -2.859375 C 8.273438 -3.347656 8.492188 -3.890625 8.640625 -4.484375 C 8.796875 -5.085938 8.875 -5.6875 8.875 -6.28125 C 8.875 -7.164062 8.660156 -7.859375 8.234375 -8.359375 C 7.816406 -8.867188 7.234375 -9.125 6.484375 -9.125 C 5.753906 -9.125 5.125 -8.882812 4.59375 -8.40625 C 4.0625 -7.9375 3.648438 -7.34375 3.359375 -6.625 C 3.078125 -5.914062 2.9375 -5.179688 2.9375 -4.421875 C 2.9375 -3.546875 3.160156 -2.796875 3.609375 -2.171875 C 4.054688 -1.554688 4.6875 -1.25 5.5 -1.25 Z M 5.5 -1.25 "/></g></g></g><g fill="#0cedf5" fill-opacity="1"><g transform="translate(208.536038, 174.031496)"><g/></g></g><g fill="#0cedf5" fill-opacity="1"><g transform="translate(214.452329, 174.031496)"><g><path d="M 6.015625 0.25 C 5.273438 0.25 4.550781 0.128906 3.84375 -0.109375 C 3.132812 -0.347656 2.507812 -0.71875 1.96875 -1.21875 C 1.425781 -1.71875 1.023438 -2.347656 0.765625 -3.109375 L 2.6875 -3.640625 C 2.945312 -2.878906 3.410156 -2.316406 4.078125 -1.953125 C 4.753906 -1.597656 5.457031 -1.421875 6.1875 -1.421875 C 6.738281 -1.421875 7.257812 -1.515625 7.75 -1.703125 C 8.25 -1.890625 8.648438 -2.171875 8.953125 -2.546875 C 9.265625 -2.921875 9.421875 -3.367188 9.421875 -3.890625 C 9.421875 -4.390625 9.28125 -4.789062 9 -5.09375 C 8.726562 -5.40625 8.367188 -5.65625 7.921875 -5.84375 C 7.472656 -6.039062 6.976562 -6.21875 6.4375 -6.375 C 5.90625 -6.53125 5.367188 -6.695312 4.828125 -6.875 C 4.285156 -7.0625 3.785156 -7.296875 3.328125 -7.578125 C 2.878906 -7.859375 2.519531 -8.226562 2.25 -8.6875 C 1.976562 -9.144531 1.84375 -9.734375 1.84375 -10.453125 C 1.84375 -11.328125 2.082031 -12.050781 2.5625 -12.625 C 3.050781 -13.207031 3.675781 -13.640625 4.4375 -13.921875 C 5.195312 -14.210938 6 -14.359375 6.84375 -14.359375 C 7.53125 -14.359375 8.203125 -14.257812 8.859375 -14.0625 C 9.523438 -13.875 10.125 -13.582031 10.65625 -13.1875 C 11.1875 -12.800781 11.582031 -12.3125 11.84375 -11.71875 L 9.90625 -11.171875 C 9.65625 -11.671875 9.226562 -12.050781 8.625 -12.3125 C 8.03125 -12.570312 7.410156 -12.703125 6.765625 -12.703125 C 6.253906 -12.703125 5.773438 -12.625 5.328125 -12.46875 C 4.890625 -12.3125 4.53125 -12.070312 4.25 -11.75 C 3.976562 -11.425781 3.84375 -11.015625 3.84375 -10.515625 C 3.84375 -10.054688 3.976562 -9.675781 4.25 -9.375 C 4.53125 -9.082031 4.898438 -8.835938 5.359375 -8.640625 C 5.816406 -8.453125 6.316406 -8.28125 6.859375 -8.125 C 7.398438 -7.976562 7.941406 -7.804688 8.484375 -7.609375 C 9.023438 -7.421875 9.523438 -7.1875 9.984375 -6.90625 C 10.441406 -6.625 10.804688 -6.265625 11.078125 -5.828125 C 11.347656 -5.390625 11.484375 -4.832031 11.484375 -4.15625 C 11.484375 -3.457031 11.328125 -2.832031 11.015625 -2.28125 C 10.710938 -1.726562 10.300781 -1.265625 9.78125 -0.890625 C 9.257812 -0.523438 8.675781 -0.242188 8.03125 -0.046875 C 7.382812 0.148438 6.710938 0.25 6.015625 0.25 Z M 6.015625 0.25 "/></g></g></g><g fill="#0cedf5" fill-opacity="1"><g transform="translate(227.320254, 174.031496)"><g><path d="M 4.859375 0.25 C 3.453125 0.25 2.382812 -0.160156 1.65625 -0.984375 C 0.9375 -1.816406 0.578125 -2.890625 0.578125 -4.203125 C 0.578125 -5.429688 0.820312 -6.53125 1.3125 -7.5 C 1.800781 -8.46875 2.484375 -9.234375 3.359375 -9.796875 C 4.242188 -10.359375 5.257812 -10.640625 6.40625 -10.640625 C 7.125 -10.640625 7.800781 -10.484375 8.4375 -10.171875 C 9.082031 -9.867188 9.601562 -9.394531 10 -8.75 C 10.40625 -8.113281 10.609375 -7.296875 10.609375 -6.296875 C 10.609375 -5.410156 10.46875 -4.570312 10.1875 -3.78125 C 9.90625 -2.988281 9.507812 -2.289062 9 -1.6875 C 8.488281 -1.082031 7.878906 -0.609375 7.171875 -0.265625 C 6.472656 0.078125 5.703125 0.25 4.859375 0.25 Z M 5 -1.3125 C 5.820312 -1.3125 6.503906 -1.554688 7.046875 -2.046875 C 7.597656 -2.535156 8.015625 -3.164062 8.296875 -3.9375 C 8.578125 -4.707031 8.71875 -5.515625 8.71875 -6.359375 C 8.71875 -7.390625 8.46875 -8.097656 7.96875 -8.484375 C 7.46875 -8.878906 6.851562 -9.078125 6.125 -9.078125 C 5.289062 -9.078125 4.597656 -8.835938 4.046875 -8.359375 C 3.503906 -7.878906 3.097656 -7.265625 2.828125 -6.515625 C 2.554688 -5.773438 2.421875 -5 2.421875 -4.1875 C 2.421875 -3.320312 2.640625 -2.625 3.078125 -2.09375 C 3.515625 -1.570312 4.15625 -1.3125 5 -1.3125 Z M 5 -1.3125 "/></g></g></g><g fill="#0cedf5" fill-opacity="1"><g transform="translate(238.878139, 174.031496)"><g><path d="M 2.65625 0 C 1.84375 0 1.289062 -0.113281 1 -0.34375 C 0.71875 -0.582031 0.578125 -0.941406 0.578125 -1.421875 C 0.578125 -1.796875 0.625 -2.203125 0.71875 -2.640625 L 3.140625 -14.109375 L 4.96875 -14.109375 L 2.59375 -2.953125 C 2.570312 -2.796875 2.550781 -2.65625 2.53125 -2.53125 C 2.507812 -2.40625 2.5 -2.296875 2.5 -2.203125 C 2.5 -1.984375 2.5625 -1.820312 2.6875 -1.71875 C 2.8125 -1.625 3.050781 -1.578125 3.40625 -1.578125 L 4.1875 -1.578125 L 3.84375 0 Z M 2.65625 0 "/></g></g></g><g fill="#0cedf5" fill-opacity="1"><g transform="translate(244.350699, 174.031496)"><g><path d="M 3.65625 0.234375 C 2.625 0.234375 1.894531 -0.046875 1.46875 -0.609375 C 1.050781 -1.171875 0.84375 -1.867188 0.84375 -2.703125 C 0.84375 -3.210938 0.90625 -3.738281 1.03125 -4.28125 L 2.34375 -10.484375 L 4.15625 -10.484375 L 2.859375 -4.328125 C 2.796875 -4.078125 2.742188 -3.828125 2.703125 -3.578125 C 2.671875 -3.335938 2.65625 -3.109375 2.65625 -2.890625 C 2.65625 -2.429688 2.769531 -2.050781 3 -1.75 C 3.238281 -1.457031 3.664062 -1.3125 4.28125 -1.3125 C 5.113281 -1.3125 5.847656 -1.59375 6.484375 -2.15625 C 7.117188 -2.726562 7.578125 -3.671875 7.859375 -4.984375 L 9.046875 -10.484375 L 10.84375 -10.484375 L 8.625 0 L 7.25 0 L 7.125 -1.484375 C 6.664062 -0.890625 6.171875 -0.453125 5.640625 -0.171875 C 5.117188 0.0976562 4.457031 0.234375 3.65625 0.234375 Z M 3.65625 0.234375 "/></g></g></g><g fill="#0cedf5" fill-opacity="1"><g transform="translate(255.760678, 174.031496)"><g><path d="M 3.375 0 C 2.5625 0 2.003906 -0.113281 1.703125 -0.34375 C 1.398438 -0.582031 1.25 -0.941406 1.25 -1.421875 C 1.25 -1.722656 1.316406 -2.203125 1.453125 -2.859375 L 2.78125 -9.046875 L 1.03125 -9.046875 L 1.328125 -10.484375 L 3.078125 -10.484375 L 3.65625 -13.09375 L 5.46875 -13.09375 L 4.90625 -10.484375 L 6.90625 -10.484375 L 6.609375 -9.046875 L 4.609375 -9.046875 L 3.375 -3.359375 C 3.320312 -3.109375 3.273438 -2.878906 3.234375 -2.671875 C 3.203125 -2.460938 3.1875 -2.304688 3.1875 -2.203125 C 3.1875 -1.972656 3.25 -1.8125 3.375 -1.71875 C 3.5 -1.625 3.738281 -1.578125 4.09375 -1.578125 L 5.03125 -1.578125 L 4.6875 0 Z M 3.375 0 "/></g></g></g><g fill="#0cedf5" fill-opacity="1"><g transform="translate(262.606674, 174.031496)"><g><path d="M 4.84375 -12.484375 C 4.488281 -12.484375 4.179688 -12.613281 3.921875 -12.875 C 3.660156 -13.132812 3.53125 -13.441406 3.53125 -13.796875 C 3.53125 -14.160156 3.660156 -14.472656 3.921875 -14.734375 C 4.179688 -14.992188 4.488281 -15.125 4.84375 -15.125 C 5.207031 -15.125 5.519531 -14.992188 5.78125 -14.734375 C 6.039062 -14.472656 6.171875 -14.160156 6.171875 -13.796875 C 6.171875 -13.441406 6.039062 -13.132812 5.78125 -12.875 C 5.519531 -12.613281 5.207031 -12.484375 4.84375 -12.484375 Z M 0.96875 0 L 2.890625 -9.046875 L 1.203125 -9.046875 L 1.5 -10.484375 L 5 -10.484375 L 2.78125 0 Z M 0.96875 0 "/></g></g></g><g fill="#0cedf5" fill-opacity="1"><g transform="translate(268.311663, 174.031496)"><g><path d="M 4.859375 0.25 C 3.453125 0.25 2.382812 -0.160156 1.65625 -0.984375 C 0.9375 -1.816406 0.578125 -2.890625 0.578125 -4.203125 C 0.578125 -5.429688 0.820312 -6.53125 1.3125 -7.5 C 1.800781 -8.46875 2.484375 -9.234375 3.359375 -9.796875 C 4.242188 -10.359375 5.257812 -10.640625 6.40625 -10.640625 C 7.125 -10.640625 7.800781 -10.484375 8.4375 -10.171875 C 9.082031 -9.867188 9.601562 -9.394531 10 -8.75 C 10.40625 -8.113281 10.609375 -7.296875 10.609375 -6.296875 C 10.609375 -5.410156 10.46875 -4.570312 10.1875 -3.78125 C 9.90625 -2.988281 9.507812 -2.289062 9 -1.6875 C 8.488281 -1.082031 7.878906 -0.609375 7.171875 -0.265625 C 6.472656 0.078125 5.703125 0.25 4.859375 0.25 Z M 5 -1.3125 C 5.820312 -1.3125 6.503906 -1.554688 7.046875 -2.046875 C 7.597656 -2.535156 8.015625 -3.164062 8.296875 -3.9375 C 8.578125 -4.707031 8.71875 -5.515625 8.71875 -6.359375 C 8.71875 -7.390625 8.46875 -8.097656 7.96875 -8.484375 C 7.46875 -8.878906 6.851562 -9.078125 6.125 -9.078125 C 5.289062 -9.078125 4.597656 -8.835938 4.046875 -8.359375 C 3.503906 -7.878906 3.097656 -7.265625 2.828125 -6.515625 C 2.554688 -5.773438 2.421875 -5 2.421875 -4.1875 C 2.421875 -3.320312 2.640625 -2.625 3.078125 -2.09375 C 3.515625 -1.570312 4.15625 -1.3125 5 -1.3125 Z M 5 -1.3125 "/></g></g></g><g fill="#0cedf5" fill-opacity="1"><g transform="translate(279.869548, 174.031496)"><g><path d="M 0.171875 0 L 2.390625 -10.484375 L 3.734375 -10.484375 L 3.859375 -9.015625 C 4.210938 -9.472656 4.675781 -9.859375 5.25 -10.171875 C 5.820312 -10.484375 6.578125 -10.640625 7.515625 -10.640625 C 8.398438 -10.640625 9.09375 -10.398438 9.59375 -9.921875 C 10.09375 -9.441406 10.34375 -8.703125 10.34375 -7.703125 C 10.34375 -7.234375 10.28125 -6.6875 10.15625 -6.0625 L 8.84375 0 L 7.0625 0 L 8.296875 -5.890625 C 8.429688 -6.515625 8.5 -7.023438 8.5 -7.421875 C 8.5 -8.035156 8.351562 -8.460938 8.0625 -8.703125 C 7.78125 -8.953125 7.335938 -9.078125 6.734375 -9.078125 C 6.234375 -9.078125 5.742188 -8.960938 5.265625 -8.734375 C 4.785156 -8.515625 4.359375 -8.132812 3.984375 -7.59375 C 3.609375 -7.0625 3.320312 -6.335938 3.125 -5.421875 L 1.984375 0 Z M 0.171875 0 "/></g></g></g><g fill="#0cedf5" fill-opacity="1"><g transform="translate(291.490829, 174.031496)"><g><path d="M 4.5 0.25 C 3.445312 0.25 2.5625 0.046875 1.84375 -0.359375 C 1.125 -0.765625 0.582031 -1.441406 0.21875 -2.390625 L 2.03125 -3 C 2.144531 -2.375 2.453125 -1.914062 2.953125 -1.625 C 3.460938 -1.332031 4 -1.1875 4.5625 -1.1875 C 5.132812 -1.1875 5.660156 -1.332031 6.140625 -1.625 C 6.617188 -1.914062 6.859375 -2.335938 6.859375 -2.890625 C 6.859375 -3.285156 6.71875 -3.59375 6.4375 -3.8125 C 6.15625 -4.03125 5.789062 -4.207031 5.34375 -4.34375 C 4.90625 -4.488281 4.441406 -4.628906 3.953125 -4.765625 C 3.460938 -4.898438 2.992188 -5.078125 2.546875 -5.296875 C 2.097656 -5.515625 1.734375 -5.8125 1.453125 -6.1875 C 1.171875 -6.570312 1.03125 -7.078125 1.03125 -7.703125 C 1.03125 -8.367188 1.226562 -8.914062 1.625 -9.34375 C 2.019531 -9.769531 2.523438 -10.09375 3.140625 -10.3125 C 3.753906 -10.53125 4.394531 -10.640625 5.0625 -10.640625 C 5.644531 -10.640625 6.207031 -10.554688 6.75 -10.390625 C 7.300781 -10.234375 7.785156 -9.992188 8.203125 -9.671875 C 8.628906 -9.359375 8.929688 -8.96875 9.109375 -8.5 L 7.421875 -7.90625 C 7.273438 -8.320312 6.953125 -8.640625 6.453125 -8.859375 C 5.960938 -9.078125 5.453125 -9.1875 4.921875 -9.1875 C 4.390625 -9.1875 3.90625 -9.070312 3.46875 -8.84375 C 3.039062 -8.625 2.828125 -8.28125 2.828125 -7.8125 C 2.828125 -7.4375 2.96875 -7.140625 3.25 -6.921875 C 3.53125 -6.703125 3.894531 -6.519531 4.34375 -6.375 C 4.800781 -6.238281 5.28125 -6.101562 5.78125 -5.96875 C 6.28125 -5.832031 6.753906 -5.648438 7.203125 -5.421875 C 7.648438 -5.203125 8.015625 -4.90625 8.296875 -4.53125 C 8.578125 -4.15625 8.71875 -3.648438 8.71875 -3.015625 C 8.71875 -2.296875 8.523438 -1.691406 8.140625 -1.203125 C 7.765625 -0.722656 7.257812 -0.359375 6.625 -0.109375 C 6 0.128906 5.289062 0.25 4.5 0.25 Z M 4.5 0.25 "/></g></g></g></svg>